<?xml version="1.0" encoding="UTF-8" standalone="no"?>
<!-- Uploaded to: SVG Repo, www.svgrepo.com, Generator: SVG Repo Mixer Tools -->

<svg
   fill="#000000"
   version="1.1"
   id="Capa_1"
   width="800px"
   height="800px"
   viewBox="0 0 544.345 544.345"
   xml:space="preserve"
   sodipodi:docname="mouse-svgrepo-com.svg"
   inkscape:version="1.1.1 (3bf5ae0d25, 2021-09-20)"
   xmlns:inkscape="http://www.inkscape.org/namespaces/inkscape"
   xmlns:sodipodi="http://sodipodi.sourceforge.net/DTD/sodipodi-0.dtd"
   xmlns="http://www.w3.org/2000/svg"
   xmlns:svg="http://www.w3.org/2000/svg"><defs
   id="defs11" /><sodipodi:namedview
   id="namedview9"
   pagecolor="#ffffff"
   bordercolor="#666666"
   borderopacity="1.0"
   inkscape:pageshadow="2"
   inkscape:pageopacity="0.0"
   inkscape:pagecheckerboard="0"
   showgrid="false"
   inkscape:zoom="0.385"
   inkscape:cx="396.1039"
   inkscape:cy="393.50649"
   inkscape:window-width="1515"
   inkscape:window-height="963"
   inkscape:window-x="0"
   inkscape:window-y="0"
   inkscape:window-maximized="1"
   inkscape:current-layer="layer1" />

<g
   inkscape:groupmode="layer"
   id="layer1"
   inkscape:label="Top"><g
     id="g6"
     style="fill:#cdd6f4;fill-opacity:1"
     transform="matrix(0.79621544,0,0,0.79621544,55.464839,55.46452)">
	<g
   id="g4"
   style="fill:#cdd6f4;fill-opacity:1">
		<path
   d="m 532.025,368.16 c -3.99,-9.033 -8.147,-18.013 -11.709,-27.218 -4.61,-11.913 -4.386,-11.999 -0.849,-24.725 3.554,-12.771 -0.086,-23.378 -9.964,-29.054 -4.888,-2.807 -6.242,-2.28 -8.71,2.995 -2.424,5.173 -4.896,10.33 -7.598,15.365 -1.313,2.448 -3.187,4.594 -5.813,8.307 -2.75,-5.157 -4.655,-9.318 -7.087,-13.142 -3.293,-5.178 -6.096,-11.224 -10.71,-14.876 -8.278,-6.544 -14.387,-6.52 -20.2,1.926 -3.562,5.174 -6.341,10.947 -8.911,16.699 -0.979,2.195 -1.411,3.681 -4.19,3.922 -11.371,0.971 -22.562,2.505 -33.713,5.593 -5.871,1.628 -13.268,-0.648 -19.58,-2.509 -22.681,-6.679 -45.61,-10.938 -69.241,-7.438 -41.62,6.164 -68.323,30.938 -83.807,68.943 -8.07,19.812 -11.566,40.417 -8.417,61.792 0.657,4.451 2.285,8.76 3.439,13.142 0.404,1.53 0.784,3.064 1.139,4.504 -23.986,5.215 -49.335,7.736 -72.648,-0.775 -22.55,-8.233 -40.588,-26.312 -42.461,-50.983 -2.056,-27.05 16.349,-52.102 33.791,-70.719 19.85,-21.188 42.897,-39.327 58.973,-63.831 31.167,-47.52 35.814,-109.483 6.45,-158.839 -6.259,-10.522 -13.986,-20 -22.803,-28.217 -1.082,-1.717 -2.668,-3.174 -4.598,-4.19 -0.086,-0.045 -0.171,-0.086 -0.253,-0.126 C 155.089,51.572 118.418,40.226 82.146,47.362 50.155,53.654 22.117,72.736 5.54,100.847 c -0.665,1.126 -0.963,2.354 -0.983,3.598 -3.66,4.407 -5.157,10.237 -4.337,16.483 1.379,10.486 10.265,17.422 20.322,18.666 22.2,2.75 32.722,-19.633 46.304,-32.362 28.38,-26.594 69.87,-32.085 104.534,-15.545 9.453,8.454 17.532,18.503 23.664,29.38 12.868,22.819 17.087,48.977 13.859,74.839 -3.431,27.516 -15.594,53.012 -33.341,74.125 -18.728,22.281 -42.404,39.915 -60.14,63.094 -17.042,22.269 -29.062,51.477 -23.101,79.809 5.541,26.336 26.267,45.998 50.408,56.178 27.1,11.428 57.349,9.339 85.717,3.345 l 0.106,1.021 c 1.799,-0.326 4.223,0.151 5.716,1.179 22.456,15.513 47.384,18.744 73.815,15.651 11.48,-1.343 22.436,1.081 32.542,6.956 1.506,0.873 3.357,1.15 5.446,1.836 l 0.71,-5.218 c 2.57,0.53 4.811,0.987 7.748,1.591 -0.004,-1.615 -0.012,-3.104 -0.016,-4.851 1.905,0.036 3.859,0.077 6.25,0.126 -0.849,-1.991 -1.6,-3.754 -2.566,-6.03 1.648,0.347 2.95,0.624 5.777,1.22 -1.804,-2.909 -2.529,-5.422 -4.19,-6.507 -5.145,-3.358 -10.497,-6.496 -16.087,-9.018 -1.938,-0.873 -4.892,-0.045 -7.214,0.612 -4.194,1.184 -8.213,2.995 -12.407,4.187 -1.604,0.457 -3.484,-0.069 -5.431,-0.764 9.719,-6.471 15.582,-17.992 28.862,-19.376 6.765,-0.701 13.297,-3.517 20,-5.083 1.518,-0.355 3.554,0.094 4.933,0.897 2.302,1.338 4.476,3.056 6.341,4.965 13.072,13.366 29.938,20.14 46.536,27.594 4.606,2.068 8.078,6.658 12.306,10.294 0.412,-1.444 0.975,-3.424 1.75,-6.145 3.239,1.354 6.386,2.664 9.56,3.99 2.342,-5.427 -2.893,-8.332 -5.933,-13.261 l 10.987,1.498 c -1.514,-2.559 -2.464,-6.03 -4.716,-7.467 -2.366,-1.514 -5.978,-1.081 -10.551,-1.701 2.696,-1.587 3.994,-2.351 5.532,-3.256 -4.19,-4.374 -9.021,-2.733 -13.154,-1.069 -4.957,2 -8.964,1.285 -12.293,-2.358 -3.753,-4.112 -3.668,-9.229 -2.244,-14.3 1.028,-3.664 3.383,-2.13 5.598,-1.257 5.296,2.085 10.547,4.337 15.978,5.998 2.636,0.808 5.655,0.261 8.458,0.66 2.439,0.348 5.063,0.706 7.156,1.865 3.998,2.211 7.679,4.994 11.489,7.54 0.555,-0.38 1.114,-0.76 1.669,-1.135 -1.191,-3.011 -2.387,-6.021 -3.55,-8.947 4.443,-0.653 8.621,1.485 13.709,7.548 l 0.779,-5.72 c 1.783,0.412 3.439,0.795 5.145,1.191 0.155,-5.749 -5.602,-11.869 -11.04,-11.886 -1.673,-0.004 -3.35,0.372 -5.022,0.376 -14.076,0.036 -20.307,-4.685 -23.664,-18.446 -0.408,-1.664 0.665,-4.259 1.905,-5.675 11.815,-13.493 27.312,-18.205 44.7,-18.561 7.568,-0.154 15.011,-0.628 21.604,4.187 1.105,0.808 2.897,1.016 4.346,0.946 5.871,-0.285 11.75,-0.641 17.597,-1.248 10.09,-1.053 13.146,-5.806 9.363,-15.007 -3.313,-8.088 -7.218,-15.934 -10.756,-23.939 z"
   id="path2"
   style="fill:#cdd6f4;fill-opacity:1" />
	</g>
</g></g></svg>
